<svg width="20" height="20" viewBox="0 0 20 20" fill="none" xmlns="http://www.w3.org/2000/svg">
<path d="M16.4624 2.47C16.3735 2.47 16.2846 2.45 16.2068 2.41C14.0731 1.42 12.2282 1 10.0167 1C7.81622 1 5.7269 1.47 3.82651 2.41C3.55979 2.54 3.22639 2.45 3.07081 2.21C2.92633 1.97 3.02635 1.66 3.29307 1.53C5.36016 0.52 7.62729 0 10.0167 0C12.3838 0 14.4509 0.47 16.718 1.52C16.9959 1.65 17.0959 1.95 16.9514 2.19C16.8514 2.37 16.6625 2.47 16.4624 2.47V2.47ZM0.55918 7.72C0.448046 7.72 0.336912 7.69 0.236892 7.63C-0.0187162 7.47 -0.0742833 7.16 0.103531 6.93C1.20376 5.53 2.60404 4.43 4.27105 3.66C7.76065 2.04 12.2282 2.03 15.7289 3.65C17.396 4.42 18.7962 5.51 19.8965 6.9C20.0743 7.12 20.0187 7.44 19.7631 7.6C19.5075 7.76 19.163 7.71 18.9852 7.48C17.985 6.22 16.718 5.23 15.2177 4.54C12.0282 3.07 7.94958 3.07 4.77115 4.55C3.25973 5.25 1.99281 6.25 0.992602 7.51C0.903695 7.65 0.736994 7.72 0.55918 7.72V7.72ZM7.50505 19.79C7.36057 19.79 7.2161 19.74 7.11608 19.64C6.14921 18.77 5.62688 18.21 4.88229 17C4.11546 15.77 3.71538 14.27 3.71538 12.66C3.71538 9.69 6.53818 7.27 10.0056 7.27C13.4729 7.27 16.2957 9.69 16.2957 12.66C16.2957 12.94 16.0512 13.16 15.7401 13.16C15.4289 13.16 15.1844 12.94 15.1844 12.66C15.1844 10.24 12.8617 8.27 10.0056 8.27C7.14942 8.27 4.82672 10.24 4.82672 12.66C4.82672 14.1 5.18235 15.43 5.86027 16.51C6.57152 17.66 7.06051 18.15 7.91624 18.93C8.1274 19.13 8.1274 19.44 7.91624 19.64C7.79399 19.74 7.64952 19.79 7.50505 19.79ZM15.4733 17.94C14.1508 17.94 12.9839 17.64 12.0282 17.05C10.3723 16.04 9.38321 14.4 9.38321 12.66C9.38321 12.38 9.6277 12.16 9.93888 12.16C10.2501 12.16 10.4945 12.38 10.4945 12.66C10.4945 14.07 11.2947 15.4 12.6505 16.22C13.4396 16.7 14.362 16.93 15.4733 16.93C15.7401 16.93 16.1846 16.9 16.6291 16.83C16.9292 16.78 17.2181 16.96 17.2737 17.24C17.3293 17.51 17.1292 17.77 16.8181 17.82C16.1846 17.93 15.6289 17.94 15.4733 17.94V17.94ZM13.2396 20C13.1951 20 13.1395 19.99 13.0951 19.98C11.328 19.54 10.1723 18.95 8.9609 17.88C7.40503 16.49 6.54929 14.64 6.54929 12.66C6.54929 11.04 8.08294 9.72 9.97222 9.72C11.8615 9.72 13.3951 11.04 13.3951 12.66C13.3951 13.73 14.4287 14.6 15.7067 14.6C16.9848 14.6 18.0183 13.73 18.0183 12.66C18.0183 8.89 14.4065 5.83 9.9611 5.83C6.8049 5.83 3.91542 7.41 2.61516 9.86C2.18173 10.67 1.95947 11.62 1.95947 12.66C1.95947 13.44 2.03726 14.67 2.70406 16.27C2.8152 16.53 2.67072 16.82 2.38177 16.91C2.09283 17.01 1.77054 16.87 1.67052 16.62C1.12596 15.31 0.859241 14.01 0.859241 12.66C0.859241 11.46 1.11485 10.37 1.61495 9.42C3.09303 6.63 6.37148 4.82 9.9611 4.82C15.0177 4.82 19.1296 8.33 19.1296 12.65C19.1296 14.27 17.596 15.59 15.7067 15.59C13.8174 15.59 12.2838 14.27 12.2838 12.65C12.2838 11.58 11.2503 10.71 9.97222 10.71C8.69418 10.71 7.66063 11.58 7.66063 12.65C7.66063 14.36 8.39412 15.96 9.73884 17.16C10.7946 18.1 11.8059 18.62 13.3729 19.01C13.673 19.08 13.8397 19.36 13.7619 19.62C13.7063 19.85 13.4729 20 13.2396 20V20Z" fill="#495A75"/>
</svg>
